<?xml version="1.0" encoding="UTF-8" standalone="no"?>
<svg
   xmlns:dc="http://purl.org/dc/elements/1.1/"
   xmlns:cc="http://creativecommons.org/ns#"
   xmlns:rdf="http://www.w3.org/1999/02/22-rdf-syntax-ns#"
   xmlns:svg="http://www.w3.org/2000/svg"
   xmlns="http://www.w3.org/2000/svg"
   xmlns:sodipodi="http://sodipodi.sourceforge.net/DTD/sodipodi-0.dtd"
   xmlns:inkscape="http://www.inkscape.org/namespaces/inkscape"
   version="1.1"
   id="svg2"
   xml:space="preserve"
   width="602.04633"
   height="683.05267"
   viewBox="0 0 602.04634 683.05268"
   sodipodi:docname="sshighlighting.svg"
   inkscape:version="1.0.2 (e86c870879, 2021-01-15)"><metadata
     id="metadata8"><rdf:RDF><cc:Work
         rdf:about=""><dc:format>image/svg+xml</dc:format><dc:type
           rdf:resource="http://purl.org/dc/dcmitype/StillImage" /><dc:title></dc:title></cc:Work></rdf:RDF></metadata><defs
     id="defs6" /><sodipodi:namedview
     pagecolor="#ffffff"
     bordercolor="#666666"
     borderopacity="1"
     objecttolerance="10"
     gridtolerance="10"
     guidetolerance="10"
     inkscape:pageopacity="0"
     inkscape:pageshadow="2"
     inkscape:window-width="2488"
     inkscape:window-height="1232"
     id="namedview4"
     showgrid="false"
     fit-margin-top="0"
     fit-margin-left="0"
     fit-margin-right="0"
     fit-margin-bottom="0"
     inkscape:showpageshadow="false"
     inkscape:zoom="0.26543356"
     inkscape:cx="324.89374"
     inkscape:cy="435.56845"
     inkscape:window-x="0"
     inkscape:window-y="0"
     inkscape:window-maximized="0"
     inkscape:current-layer="g10" /><g
     id="g10"
     inkscape:groupmode="layer"
     inkscape:label="ink_ext_XXXXXX"
     transform="matrix(1.3333333,0,0,-1.3333333,-1089.7729,1850.2351)"><g
       id="g1109"
       transform="translate(-1881.8269,788.33289)"><g
         id="g1053"
         style="stroke:#2091e5;stroke-width:28.3465;stroke-miterlimit:10;stroke-dasharray:none;stroke-opacity:1"
         transform="matrix(0.80829682,0,0,0.80829682,524.54929,126.07354)"><path
           style="fill:none;stroke:#2091e5;stroke-width:28.3465;stroke-linecap:round;stroke-linejoin:round;stroke-miterlimit:10;stroke-dasharray:none;stroke-opacity:1"
           d="M 2707.5087,419.9812 V 117.26001"
           id="path69" /><path
           style="fill:none;stroke:#2091e5;stroke-width:28.3465;stroke-linecap:round;stroke-linejoin:round;stroke-miterlimit:10;stroke-dasharray:none;stroke-opacity:1"
           d="m 2707.5087,419.9812 262.1606,151.36059"
           id="path71" /><path
           style="fill:none;stroke:#2091e5;stroke-width:28.3465;stroke-linecap:round;stroke-linejoin:round;stroke-miterlimit:10;stroke-dasharray:none;stroke-opacity:1"
           d="m 2756.4244,395.77924 209.7374,121.08848"
           id="path73" /><path
           style="fill:none;stroke:#2091e5;stroke-width:28.3465;stroke-linecap:round;stroke-linejoin:round;stroke-miterlimit:10;stroke-dasharray:none;stroke-opacity:1"
           d="M 2969.6693,571.34179 3231.8309,419.9812"
           id="path75" /><path
           style="fill:none;stroke:#2091e5;stroke-width:28.3465;stroke-linecap:round;stroke-linejoin:round;stroke-miterlimit:10;stroke-dasharray:none;stroke-opacity:1"
           d="M 3231.8309,419.9812 V 117.26001"
           id="path77" /><path
           style="fill:none;stroke:#2091e5;stroke-width:28.3465;stroke-linecap:round;stroke-linejoin:round;stroke-miterlimit:10;stroke-dasharray:none;stroke-opacity:1"
           d="M 3186.4227,389.70908 V 147.53213"
           id="path79" /><path
           style="fill:none;stroke:#2091e5;stroke-width:28.3465;stroke-linecap:round;stroke-linejoin:round;stroke-miterlimit:10;stroke-dasharray:none;stroke-opacity:1"
           d="M 3231.8309,117.26001 2969.6693,-34.100582"
           id="path81" /><path
           style="fill:none;stroke:#2091e5;stroke-width:28.3465;stroke-linecap:round;stroke-linejoin:round;stroke-miterlimit:10;stroke-dasharray:none;stroke-opacity:1"
           d="M 2969.6693,-34.100582 2707.5087,117.26001"
           id="path83" /><path
           style="fill:none;stroke:#2091e5;stroke-width:28.3465;stroke-linecap:round;stroke-linejoin:round;stroke-miterlimit:10;stroke-dasharray:none;stroke-opacity:1"
           d="M 2966.1618,20.37349 2756.4244,141.46196"
           id="path85" /></g><g
         id="g1042"
         transform="matrix(0.22482095,0,0,0.22482095,2686.4658,104.58698)"><g
           id="g14"
           transform="scale(0.112254)"><path
             d="m 5907.92,12995.7 c 519.46,519.4 725.24,1155.8 -43.77,1924.9 -769.02,769 -2221.63,1379.4 -2741.09,859.9 -519.45,-519.4 90.96,-1972 859.98,-2741 769.02,-769.1 1405.42,-563.3 1924.88,-43.8"
             style="fill:#f9ab3b;fill-opacity:1;fill-rule:nonzero;stroke:none"
             id="path16" /></g><g
           id="g18"
           transform="scale(0.112212)"><path
             d="m 15780.3,3130.32 c 519.7,519.64 -91,1972.78 -860.3,2742.03 -769.3,769.35 -1406,563.49 -1925.6,43.85 -519.7,-519.64 -725.5,-1156.29 43.8,-1925.64 769.3,-769.26 2222.4,-1379.88 2742.1,-860.24"
             style="fill:#f9ab3b;fill-opacity:1;fill-rule:nonzero;stroke:none"
             id="path20" /></g><path
           d="m 498.547,1061.34 c 0,82.46 -34.181,149.31 -156.263,149.31 -122.082,0 -285.8356,-66.85 -285.8356,-149.31 0,-82.46 163.7536,-149.31 285.8356,-149.31 122.082,0 156.263,66.85 156.263,149.31"
           style="fill:#f9ab3b;fill-opacity:1;fill-rule:nonzero;stroke:none;stroke-width:0.1"
           id="path22" /><g
           id="g24"
           transform="scale(0.126679)"><path
             d="m 14043.7,9556.85 c -963.8,0 -1233.6,-527.71 -1233.6,-1178.68 0,-650.93 269.8,-1178.64 1233.6,-1178.64 963.7,0 2256.3,527.71 2256.3,1178.64 0,650.97 -1292.6,1178.68 -2256.3,1178.68"
             style="fill:#f9ab3b;fill-opacity:1;fill-rule:nonzero;stroke:none"
             id="path26" /></g><path
           d="M 447.111,658.95 C 360.786,572.63 292.265,409.57 350.575,351.26 c 58.311,-58.31 221.372,10.21 307.698,96.53 86.324,86.33 63.224,157.77 4.913,216.08 -58.311,58.31 -129.75,81.41 -216.075,-4.92"
           style="fill:#f9ab3b;fill-opacity:1;fill-rule:nonzero;stroke:none;stroke-width:0.1"
           id="path28" /><g
           id="g30"
           transform="scale(0.112254)"><path
             d="m 12989.6,12995.7 c 519.4,-519.5 1155.9,-725.3 1924.9,43.8 769,769 1379.5,2221.6 859.9,2741 -519.4,519.5 -1972,-90.9 -2741,-859.9 -769,-769.1 -563.3,-1405.5 -43.8,-1924.9"
             style="fill:#f9ab3b;fill-opacity:1;fill-rule:nonzero;stroke:none"
             id="path32" /></g><path
           d="m 1557.57,1061.34 c 0,1.31 0,2.63 -0.01,3.94 l -0.01,1.13 c -0.01,0.99 -0.03,1.98 -0.04,2.97 l -0.02,1.05 c -0.02,1.3 -0.05,2.6 -0.08,3.9 l -0.02,0.6 c -0.03,1.12 -0.06,2.23 -0.1,3.33 l -0.04,1.17 c -0.04,1.03 -0.08,2.06 -0.12,3.09 l -0.04,0.85 c -0.05,1.3 -0.11,2.6 -0.18,3.9 l -0.05,0.82 c -0.05,1.03 -0.11,2.06 -0.17,3.09 l -0.07,1.15 c -0.07,1.19 -0.15,2.38 -0.23,3.56 l -0.02,0.28 c -0.09,1.33 -0.19,2.66 -0.29,3.99 l -0.06,0.79 c -0.09,1.07 -0.18,2.13 -0.27,3.2 l -0.08,0.94 c -0.23,2.62 -0.47,5.24 -0.74,7.85 l -0.09,0.84 c -0.12,1.09 -0.24,2.18 -0.36,3.28 l -0.07,0.69 c -0.16,1.34 -0.31,2.67 -0.47,4.01 l -0.01,0.09 c -0.16,1.28 -0.32,2.54 -0.48,3.82 l -0.1,0.74 c -0.16,1.21 -0.32,2.41 -0.49,3.62 l -0.04,0.3 c -0.19,1.36 -0.38,2.73 -0.58,4.1 l -0.02,0.12 c -0.19,1.27 -0.38,2.54 -0.58,3.8 l -0.09,0.59 c -0.42,2.7 -0.87,5.39 -1.34,8.07 l -0.01,0.09 c -0.23,1.31 -0.46,2.62 -0.7,3.93 l -0.06,0.3 c -0.49,2.73 -1.02,5.45 -1.56,8.16 l -0.01,0.07 c -0.21,1.04 -0.43,2.08 -0.64,3.12 l -0.17,0.81 c -0.17,0.79 -0.33,1.58 -0.5,2.37 l -0.19,0.87 c -0.19,0.9 -0.39,1.79 -0.59,2.68 l -0.08,0.39 c -0.48,2.15 -0.97,4.29 -1.48,6.43 l -0.11,0.49 c -0.23,0.96 -0.46,1.91 -0.69,2.86 l -0.08,0.32 c -0.8,3.27 -1.63,6.53 -2.5,9.77 l -0.05,0.2 c -56.65,212.14 -250.14,368.39 -480.13,368.39 -274.438,0 -496.914,-222.48 -496.914,-496.92 0,-210.25 130.582,-390 315.069,-462.58 l 0.134,-0.06 c 2.859,-1.12 5.73,-2.22 8.614,-3.29 l 0.082,-0.03 c 0.901,-0.34 1.803,-0.67 2.707,-1 l 0.3,-0.11 c 0.906,-0.33 1.814,-0.65 2.722,-0.98 l 0.084,-0.03 c 1.902,-0.68 3.811,-1.35 5.725,-2 l 0.405,-0.14 c 0.789,-0.27 1.58,-0.54 2.37,-0.81 l 0.591,-0.2 c 0.782,-0.26 1.566,-0.52 2.351,-0.78 l 0.459,-0.15 c 1.849,-0.61 3.703,-1.21 5.561,-1.79 l 0.804,-0.25 c 0.659,-0.21 1.319,-0.42 1.979,-0.62 l 0.899,-0.28 c 0.675,-0.2 1.352,-0.41 2.028,-0.62 l 0.727,-0.22 c 0.93,-0.28 1.861,-0.55 2.793,-0.83 l 0.101,-0.03 c 2.675,-0.78 5.36,-1.55 8.054,-2.29 l 0.066,-0.02 c 1.296,-0.36 2.594,-0.71 3.894,-1.05 l 0.243,-0.07 c 2.626,-0.7 5.261,-1.38 7.903,-2.03 l 0.498,-0.13 c 1.235,-0.3 2.471,-0.6 3.71,-0.9 l 0.181,-0.04 c 2.632,-0.63 5.274,-1.24 7.922,-1.83 l 0.606,-0.13 c 1.288,-0.28 2.578,-0.56 3.87,-0.84 h 0.004 c 1.321,-0.28 2.645,-0.55 3.969,-0.82 l 0.602,-0.12 c 1.125,-0.23 2.252,-0.45 3.38,-0.67 l 0.676,-0.13 c 2.602,-0.51 5.211,-0.99 7.827,-1.45 l 0.745,-0.13 c 1.165,-0.21 2.332,-0.41 3.501,-0.6 l 0.441,-0.08 c 1.324,-0.22 2.651,-0.43 3.978,-0.64 l 0.523,-0.08 c 1.127,-0.18 2.256,-0.35 3.385,-0.52 l 0.874,-0.14 c 1.278,-0.18 2.556,-0.37 3.837,-0.55 l 0.04,-0.01 c 1.314,-0.18 2.631,-0.36 3.949,-0.53 l 0.88,-0.12 c 1.045,-0.13 2.091,-0.27 3.138,-0.4 l 0.92,-0.11 c 1.313,-0.16 2.623,-0.32 3.933,-0.47 l 0.17,-0.01 c 1.23,-0.14 2.46,-0.28 3.69,-0.41 l 1.02,-0.11 c 1.11,-0.11 2.21,-0.22 3.32,-0.33 l 0.62,-0.06 c 1.3,-0.13 2.6,-0.24 3.9,-0.36 l 0.92,-0.08 c 1.04,-0.09 2.08,-0.17 3.12,-0.26 l 1,-0.08 c 1.26,-0.09 2.52,-0.19 3.78,-0.28 l 0.17,-0.01 c 1.3,-0.09 2.61,-0.18 3.91,-0.26 l 1.1,-0.06 c 1.03,-0.06 2.05,-0.12 3.08,-0.18 l 0.92,-0.05 c 1.32,-0.07 2.64,-0.13 3.96,-0.19 l 0.58,-0.02 c 1.12,-0.05 2.24,-0.09 3.37,-0.13 l 1.15,-0.04 c 1.08,-0.04 2.16,-0.07 3.24,-0.1 l 0.76,-0.02 c 1.31,-0.04 2.62,-0.07 3.94,-0.09 l 0.95,-0.02 c 1.04,-0.01 2.08,-0.03 3.13,-0.04 l 1.06,-0.01 c 1.33,-0.01 2.66,-0.01 4,-0.01 274.44,0 496.91,222.47 496.91,496.91"
           style="fill:#f9ab3b;fill-opacity:1;fill-rule:nonzero;stroke:none;stroke-width:0.1"
           id="path34" /><path
           d="m 911.346,342.96 c 0,-122.08 66.851,-285.8299 149.314,-285.8299 82.46,0 149.31,163.7499 149.31,285.8299 0,122.09 -66.85,156.27 -149.31,156.27 -82.463,0 -149.314,-34.18 -149.314,-156.27"
           style="fill:#f9ab3b;fill-opacity:1;fill-rule:nonzero;stroke:none;stroke-width:0.1"
           id="path36" /><g
           id="g38"
           transform="scale(0.126721)"><path
             d="m 9548.3,14044.4 c 0,963.4 -527.54,2255.6 -1178.25,2255.6 -650.75,0 -1178.29,-1292.2 -1178.29,-2255.6 0,-963.4 527.54,-1233.1 1178.29,-1233.1 650.71,0 1178.25,269.7 1178.25,1233.1"
             style="fill:#f9ab3b;fill-opacity:1;fill-rule:nonzero;stroke:none"
             id="path40" /></g><g
           id="g42"
           transform="scale(0.109072)"><path
             d="m 4401.59,15513 c 84.05,-28.6 165.79,-69.3 254.33,-75.9 161.52,-12 328.46,122.3 324.38,284.3 -5.86,232.5 -250.76,347.3 -437.28,422.6 -84.82,34.2 -175.24,63.2 -268.2,84.4 -313.6,71.6 -655.97,53.7 -908.76,-158.4 -138.94,-116.6 -298.31,-399.6 -99.1,-539.9 74.73,-52.7 176.38,-46.8 264.02,-20.8 87.63,26 169.96,69.7 259.67,87.3 115.16,22.6 233.86,0.7 349.17,-21.1 88.23,-16.8 176.78,-33.5 261.77,-62.5"
             style="fill:#fbbf5e;fill-opacity:1;fill-rule:nonzero;stroke:none"
             id="path44" /></g><g
           id="g46"
           transform="scale(0.105601)"><path
             d="m 5516.02,15680.9 c 98.12,30.4 217.92,87.4 255.48,191.1 25.13,69.4 1.99,147.6 -30.51,210.4 -38.42,74.1 -92.09,144.7 -167.95,179.6 -29.72,13.7 -61.85,21.5 -94.15,26.7 -69.86,11.3 -188.47,-26.6 -174.31,-117.2 6.17,-39.4 41.89,-68.3 47.76,-107.9 20.08,-135.5 -211.9,-147.5 -96.76,-298.7 67.84,-89 154.15,-116.9 260.44,-84"
             style="fill:#fbbf5e;fill-opacity:1;fill-rule:nonzero;stroke:none"
             id="path48" /></g><g
           id="g50"
           transform="scale(0.109031)"><path
             d="m 15436.8,4663.92 c 6.6,-88.6 47.3,-170.32 75.9,-254.43 28.9,-85.02 45.8,-173.62 62.5,-261.85 21.8,-115.38 43.6,-234.06 21.1,-349.35 -17.7,-89.7 -61.3,-172.06 -87.3,-259.74 -26,-87.69 -31.9,-189.31 20.8,-264.15 140.3,-199.21 423.4,-39.8 540.1,99.15 212.2,252.95 230.1,595.43 158.5,909.1 -21.2,93 -50.3,183.52 -84.5,268.36 -75.3,186.56 -190.2,431.53 -422.8,437.4 -162,4.13 -296.4,-162.89 -284.3,-324.49"
             style="fill:#fbbf5e;fill-opacity:1;fill-rule:nonzero;stroke:none"
             id="path52" /></g><g
           id="g54"
           transform="scale(0.10556)"><path
             d="m 15680.6,5524.66 c -32.9,-106.29 -5,-192.69 84.1,-260.52 151.2,-115.2 163.3,116.81 298.8,96.72 39.6,-5.87 68.4,-41.59 107.9,-47.74 90.7,-14.21 128.6,104.49 117.3,174.4 -5.3,32.3 -12.9,64.42 -26.7,94.17 -34.9,75.88 -105.5,129.59 -179.7,168.05 -62.8,32.5 -141.1,55.61 -210.5,30.51 -103.8,-37.61 -160.8,-157.45 -191.2,-255.59"
             style="fill:#fbbf5e;fill-opacity:1;fill-rule:nonzero;stroke:none"
             id="path56" /></g><path
           d="m 232.729,1157.49 c -18.383,17.48 -46.131,7.45 -66.317,-1.13 -9.18,-3.91 -18.396,-8.64 -27.201,-14.17 -29.707,-18.67 -54.7321,-46.46 -57.8684,-82.31 -1.7231,-19.71 7.8121,-53.83 33.9974,-49.29 9.823,1.71 17.209,10 21.962,18.77 4.754,8.76 7.738,18.48 13.299,26.75 7.141,10.63 17.981,18.09 28.559,25.3 8.092,5.52 16.218,11.05 25.005,15.38 8.688,4.27 18.133,7.44 25.47,13.76 13.386,11.53 15.897,34.77 3.094,46.94"
           style="fill:#fbbf5e;fill-opacity:1;fill-rule:nonzero;stroke:none;stroke-width:0.1"
           id="path58" /><path
           d="m 288.937,1190.44 c -8.406,2.67 -17.683,3.93 -25.958,0.87 -3.241,-1.19 -6.219,-3.01 -9.02,-5.04 -6.06,-4.37 -12.09,-16.05 -4.266,-21.76 3.408,-2.49 8.232,-1.98 11.628,-4.5 11.61,-8.61 -4.809,-26.83 15.074,-29.52 11.716,-1.59 20.245,2.78 25.721,13.17 5.057,9.6 9.751,22.8 4.81,33.35 -3.307,7.06 -10.874,11.17 -17.989,13.43"
           style="fill:#fbbf5e;fill-opacity:1;fill-rule:nonzero;stroke:none;stroke-width:0.1"
           id="path60" /><g
           id="g62"
           transform="scale(0.125258)"><path
             d="m 16286.3,8461.6 c -25.1,286.21 -224.8,508.06 -462,657.1 -70.4,44.17 -143.9,81.95 -217.2,113.12 -161.2,68.54 -382.7,148.59 -529.5,9.04 -102.1,-97.19 -82.1,-282.71 24.8,-374.74 58.5,-50.45 134,-75.76 203.3,-109.85 70.1,-34.57 135,-78.72 199.6,-122.79 84.5,-57.56 171,-117.11 228,-201.98 44.4,-66.03 68.2,-143.62 106.2,-213.56 37.9,-70.02 96.9,-136.2 175.3,-149.85 209.1,-36.25 285.2,236.15 271.5,393.51"
             style="fill:#fbbf5e;fill-opacity:1;fill-rule:nonzero;stroke:none"
             id="path64" /></g><g
           id="g66"
           transform="scale(0.115304)"><path
             d="m 16195.1,10288.3 c -24.2,17.5 -50.1,33.3 -78.2,43.7 -71.7,26.5 -152.2,15.5 -225.1,-7.6 -61.7,-19.6 -127.3,-55.3 -156,-116.5 -42.9,-91.5 -2.1,-206 41.7,-289.21 47.5,-90.16 121.5,-128 223.1,-114.25 172.4,23.31 30,181.36 130.7,256.06 29.5,21.8 71.3,17.4 100.9,39 67.8,49.5 15.5,150.8 -37.1,188.8"
             style="fill:#fbbf5e;fill-opacity:1;fill-rule:nonzero;stroke:none"
             id="path68" /></g><path
           d="m 407.237,543.89 c -25.359,-0.64 -37.89,-27.35 -46.092,-47.69 -3.73,-9.25 -6.901,-19.12 -9.215,-29.26 -7.806,-34.2 -5.855,-71.54 17.283,-99.12 12.717,-15.15 43.584,-32.53 58.888,-10.81 5.741,8.16 5.098,19.24 2.262,28.8 -2.836,9.56 -7.596,18.54 -9.515,28.32 -2.463,12.57 -0.079,25.51 2.303,38.09 1.823,9.62 3.655,19.28 6.811,28.55 3.12,9.17 7.561,18.08 8.28,27.74 1.313,17.62 -13.344,35.83 -31.005,35.38"
           style="fill:#fbbf5e;fill-opacity:1;fill-rule:nonzero;stroke:none;stroke-width:0.1"
           id="path70" /><path
           d="m 445.901,610.16 c -7.33,2.65 -15.588,0.21 -22.217,-3.22 -7.832,-4.06 -15.283,-9.73 -18.974,-17.74 -1.446,-3.14 -2.264,-6.53 -2.815,-9.94 -1.193,-7.38 2.806,-19.91 12.374,-18.41 4.168,0.65 7.219,4.42 11.402,5.04 14.299,2.12 15.574,-22.37 31.535,-10.21 9.405,7.16 12.352,16.28 8.873,27.5 -3.211,10.36 -9.223,23.01 -20.178,26.98"
           style="fill:#fbbf5e;fill-opacity:1;fill-rule:nonzero;stroke:none;stroke-width:0.1"
           id="path72" /><g
           id="g74"
           transform="scale(0.109614)"><path
             d="m 14719.7,15360.8 c 88.2,6.5 169.4,47.1 253.1,75.5 84.6,28.8 172.7,45.5 260.5,62.2 114.7,21.7 232.9,43.4 347.4,21 89.3,-17.5 171.2,-61 258.4,-86.8 87.2,-25.9 188.4,-31.8 262.8,20.6 198.1,139.6 39.5,421.2 -98.7,537.2 -251.6,211.1 -592.2,228.9 -904.2,157.7 -92.5,-21.1 -182.6,-50 -267,-84.1 -185.5,-74.8 -429.2,-189.1 -435,-420.5 -4.1,-161.1 162,-294.8 322.7,-282.8"
             style="fill:#fbbf5e;fill-opacity:1;fill-rule:nonzero;stroke:none"
             id="path76" /></g><g
           id="g78"
           transform="scale(0.105601)"><path
             d="m 14572,15680.9 c 106.3,-32.9 192.6,-5 260.5,84 115.1,151.2 -116.8,163.2 -96.8,298.7 5.9,39.6 41.6,68.5 47.8,107.9 14.2,90.6 -104.5,128.5 -174.4,117.2 -32.3,-5.2 -64.4,-13 -94.1,-26.7 -75.9,-34.9 -129.5,-105.5 -167.9,-179.6 -32.6,-62.8 -55.7,-141 -30.6,-210.4 37.6,-103.7 157.4,-160.7 255.5,-191.1"
             style="fill:#fbbf5e;fill-opacity:1;fill-rule:nonzero;stroke:none"
             id="path80" /></g><path
           d="m 1557.51,1069.38 -0.02,1.05 c -0.02,1.3 -0.05,2.6 -0.08,3.9 l -0.02,0.6 c -0.03,1.12 -0.06,2.23 -0.1,3.33 l -0.04,1.17 c -0.04,1.03 -0.08,2.06 -0.12,3.09 l -0.04,0.85 c -0.05,1.3 -0.11,2.6 -0.18,3.9 l -0.05,0.82 c -0.05,1.03 -0.11,2.06 -0.17,3.09 l -0.07,1.15 c -0.07,1.19 -0.15,2.38 -0.23,3.56 l -0.02,0.28 c -0.09,1.33 -0.19,2.66 -0.29,3.99 l -0.06,0.79 c -0.09,1.07 -0.18,2.13 -0.27,3.2 l -0.08,0.94 c -0.23,2.62 -0.47,5.24 -0.74,7.85 l -0.09,0.84 c -0.12,1.09 -0.24,2.18 -0.36,3.28 l -0.07,0.69 c -0.16,1.34 -0.31,2.67 -0.47,4.01 l -0.01,0.09 c -0.16,1.28 -0.32,2.54 -0.48,3.82 l -0.1,0.74 c -0.16,1.21 -0.32,2.41 -0.49,3.62 l -0.04,0.3 c -0.19,1.36 -0.38,2.73 -0.58,4.1 l -0.02,0.12 c -0.19,1.27 -0.38,2.54 -0.58,3.8 l -0.09,0.59 c -0.42,2.7 -0.87,5.39 -1.34,8.07 l -0.01,0.09 c -0.23,1.31 -0.46,2.62 -0.7,3.93 l -0.06,0.3 c -0.5,2.73 -1.02,5.45 -1.56,8.16 l -0.01,0.07 c -29.05,144.86 -121.11,266.95 -246.36,336.49 37.8,-70.1 59.27,-150.3 59.27,-235.52 0,-274.44 -222.48,-496.92 -496.915,-496.92 -87.394,0 -169.501,22.59 -240.849,62.21 C 685.299,710.33 791.953,622.3 920.15,584.57 l 0.101,-0.03 c 2.675,-0.78 5.36,-1.55 8.054,-2.29 l 0.066,-0.02 c 1.296,-0.36 2.594,-0.71 3.894,-1.05 l 0.243,-0.07 c 2.626,-0.7 5.261,-1.38 7.903,-2.03 l 0.498,-0.13 c 1.235,-0.3 2.471,-0.6 3.71,-0.9 l 0.181,-0.04 c 2.632,-0.63 5.274,-1.24 7.922,-1.83 l 0.606,-0.13 c 1.288,-0.28 2.578,-0.56 3.87,-0.84 h 0.004 c 1.321,-0.28 2.645,-0.55 3.969,-0.82 l 0.602,-0.12 c 1.125,-0.23 2.252,-0.45 3.38,-0.67 l 0.676,-0.13 c 2.602,-0.51 5.211,-0.99 7.827,-1.45 l 0.745,-0.13 c 1.165,-0.21 2.332,-0.41 3.501,-0.6 l 0.441,-0.08 c 1.324,-0.22 2.651,-0.43 3.978,-0.64 l 0.523,-0.08 c 1.127,-0.18 2.256,-0.35 3.385,-0.52 l 0.874,-0.14 c 1.278,-0.18 2.556,-0.37 3.837,-0.55 l 0.04,-0.01 c 1.314,-0.18 2.631,-0.36 3.949,-0.53 l 0.88,-0.12 c 1.045,-0.13 2.091,-0.27 3.138,-0.4 l 0.92,-0.11 c 1.313,-0.16 2.623,-0.32 3.933,-0.47 l 0.17,-0.01 c 1.23,-0.14 2.46,-0.28 3.69,-0.41 l 1.02,-0.11 c 1.11,-0.11 2.21,-0.22 3.32,-0.33 l 0.62,-0.06 c 1.3,-0.13 2.6,-0.24 3.9,-0.36 l 0.92,-0.08 c 1.04,-0.09 2.08,-0.17 3.12,-0.26 l 1,-0.08 c 1.26,-0.09 2.52,-0.19 3.78,-0.28 l 0.17,-0.01 c 1.3,-0.09 2.61,-0.18 3.91,-0.26 l 1.1,-0.06 c 1.03,-0.06 2.05,-0.12 3.08,-0.18 l 0.92,-0.05 c 1.32,-0.07 2.64,-0.13 3.96,-0.19 l 0.58,-0.02 c 1.12,-0.05 2.24,-0.09 3.37,-0.13 l 1.15,-0.04 c 1.08,-0.04 2.16,-0.07 3.24,-0.1 l 0.76,-0.02 c 1.31,-0.04 2.62,-0.07 3.94,-0.09 l 0.95,-0.02 c 1.04,-0.01 2.08,-0.03 3.13,-0.04 l 1.06,-0.01 c 1.33,-0.01 2.66,-0.01 4,-0.01 274.44,0 496.91,222.47 496.91,496.91 0,1.31 0,2.63 -0.01,3.94 l -0.01,1.13 c -0.01,0.99 -0.03,1.98 -0.04,2.97"
           style="fill:#f8a12c;fill-opacity:1;fill-rule:nonzero;stroke:none;stroke-width:0.1"
           id="path82" /><path
           d="m 780.71,1148.9 c 17.2,15.77 27.447,37.48 40.136,57.06 12.833,19.81 28.378,37.69 43.866,55.49 20.245,23.28 41.187,47.11 68.632,61.19 21.376,10.97 45.473,15.36 67.796,24.25 22.31,8.9 44.26,24.23 51.11,47.25 18.28,61.38 -60.668,93.86 -108.319,95.31 -86.702,2.64 -160.275,-49.39 -213.354,-115.2 -15.733,-19.51 -29.666,-40.22 -41.606,-61.09 -26.257,-45.87 -58.104,-109.44 -21.476,-158.38 25.51,-34.09 81.834,-34.65 113.215,-5.88"
           style="fill:#fbbf5e;fill-opacity:1;fill-rule:nonzero;stroke:none;stroke-width:0.1"
           id="path84" /><path
           d="m 641.084,967 c 23.851,-14.81 56.763,-7.31 81.162,2.07 26.428,10.17 39.28,29.34 38.803,57.83 -0.808,48.34 -49.064,14.21 -66.39,44.43 -5.067,8.84 -2.483,20.24 -7.471,29.1 -11.446,20.34 -41.114,9.21 -53.295,-4.05 -5.632,-6.14 -10.832,-12.75 -14.613,-20.16 -9.652,-18.94 -9.258,-41.5 -5.247,-62.37 3.394,-17.67 11.093,-36.94 27.051,-46.85"
           style="fill:#fbbf5e;fill-opacity:1;fill-rule:nonzero;stroke:none;stroke-width:0.1"
           id="path86" /><path
           d="m 1092.64,137.98 c -8.76,4.76 -18.48,7.74 -26.75,13.3 -10.63,7.14 -18.09,17.98 -25.3,28.56 -5.52,8.09 -11.05,16.22 -15.38,25 -4.27,8.69 -7.44,18.14 -13.76,25.48 -11.527,13.38 -34.765,15.89 -46.939,3.09 -17.479,-18.38 -7.452,-46.13 1.133,-66.32 3.904,-9.18 8.636,-18.39 14.17,-27.2 18.667,-29.71 46.456,-54.7298 82.306,-57.8701 19.71,-1.7199 53.83,7.8102 49.29,34.0001 -1.71,9.82 -10,17.21 -18.77,21.96"
           style="fill:#fbbf5e;fill-opacity:1;fill-rule:nonzero;stroke:none;stroke-width:0.1"
           id="path88" /><path
           d="m 957.492,250.37 c 2.487,3.41 1.978,8.23 4.497,11.63 8.612,11.61 26.835,-4.81 29.524,15.07 1.584,11.72 -2.778,20.25 -13.173,25.73 -9.598,5.05 -22.796,9.75 -33.346,4.81 -7.06,-3.31 -11.171,-10.88 -13.43,-17.99 -2.67,-8.41 -3.932,-17.69 -0.877,-25.96 1.197,-3.24 3.018,-6.22 5.04,-9.02 4.373,-6.06 16.057,-12.09 21.765,-4.27"
           style="fill:#fbbf5e;fill-opacity:1;fill-rule:nonzero;stroke:none;stroke-width:0.1"
           id="path90" /><g
           id="g92"
           transform="scale(0.125299)"><path
             d="m 8072.26,15102.7 c 50.44,58.6 75.74,134 109.82,203.3 34.56,70.1 78.69,135 122.74,199.6 57.55,84.4 117.08,170.9 201.92,227.9 66,44.4 143.58,68.2 213.49,106.1 69.99,38 136.15,96.9 149.8,175.3 36.23,209 -236.07,285.1 -393.38,271.3 -286.11,-25 -507.89,-224.7 -656.87,-461.8 -44.17,-70.3 -81.93,-143.8 -113.09,-217.1 -68.52,-161.1 -148.54,-382.5 -9.04,-529.2 97.16,-102.2 282.62,-82.2 374.61,24.6"
             style="fill:#fbbf5e;fill-opacity:1;fill-rule:nonzero;stroke:none"
             id="path94" /></g><g
           id="g96"
           transform="scale(0.115345)"><path
             d="m 8481.83,15777.7 c 90.12,47.5 127.93,121.4 114.2,223 -23.31,172.4 -181.3,30 -255.96,130.7 -21.84,29.4 -17.43,71.2 -38.99,100.8 -49.49,67.8 -150.78,15.5 -188.69,-37 -17.53,-24.3 -33.32,-50.1 -43.7,-78.2 -26.48,-71.8 -15.54,-152.2 7.6,-225.1 19.59,-61.6 55.23,-127.2 116.44,-155.9 91.46,-42.9 205.88,-2.2 289.1,41.7"
             style="fill:#fbbf5e;fill-opacity:1;fill-rule:nonzero;stroke:none"
             id="path98" /></g></g></g></g></svg>
