<?xml version="1.0" encoding="UTF-8" standalone="no"?>
<svg
   xmlns:dc="http://purl.org/dc/elements/1.1/"
   xmlns:cc="http://creativecommons.org/ns#"
   xmlns:rdf="http://www.w3.org/1999/02/22-rdf-syntax-ns#"
   xmlns:svg="http://www.w3.org/2000/svg"
   xmlns="http://www.w3.org/2000/svg"
   xmlns:sodipodi="http://sodipodi.sourceforge.net/DTD/sodipodi-0.dtd"
   xmlns:inkscape="http://www.inkscape.org/namespaces/inkscape"
   version="1.1"
   id="svg2"
   xml:space="preserve"
   width="602.04633"
   height="683.05267"
   viewBox="0 0 602.04634 683.05268"
   sodipodi:docname="sshighlighting.svg"
   inkscape:version="1.0.2 (e86c870879, 2021-01-15)"><metadata
     id="metadata8"><rdf:RDF><cc:Work
         rdf:about=""><dc:format>image/svg+xml</dc:format><dc:type
           rdf:resource="http://purl.org/dc/dcmitype/StillImage" /><dc:title /></cc:Work></rdf:RDF></metadata><defs
     id="defs6" /><sodipodi:namedview
     pagecolor="#ffffff"
     bordercolor="#666666"
     borderopacity="1"
     objecttolerance="10"
     gridtolerance="10"
     guidetolerance="10"
     inkscape:pageopacity="0"
     inkscape:pageshadow="2"
     inkscape:window-width="2488"
     inkscape:window-height="1232"
     id="namedview4"
     showgrid="false"
     fit-margin-top="0"
     fit-margin-left="0"
     fit-margin-right="0"
     fit-margin-bottom="0"
     inkscape:showpageshadow="false"
     inkscape:zoom="0.26543356"
     inkscape:cx="-475.68325"
     inkscape:cy="435.56845"
     inkscape:window-x="0"
     inkscape:window-y="0"
     inkscape:window-maximized="0"
     inkscape:current-layer="g10"
     inkscape:document-rotation="0" /><g
     id="g10"
     inkscape:groupmode="layer"
     inkscape:label="ink_ext_XXXXXX"
     transform="matrix(1.3333333,0,0,-1.3333333,-1089.7729,1850.2351)"><g
       id="g987"><g
         id="g1053"
         style="stroke:#2091e5;stroke-width:28.3465;stroke-miterlimit:10;stroke-dasharray:none;stroke-opacity:1"
         transform="matrix(0.80829682,0,0,0.80829682,-1344.8485,912.39461)"><path
           style="fill:none;stroke:#2091e5;stroke-width:28.3465;stroke-linecap:round;stroke-linejoin:round;stroke-miterlimit:10;stroke-dasharray:none;stroke-opacity:1"
           d="M 2707.5087,419.9812 V 117.26001"
           id="path69" /><path
           style="fill:none;stroke:#2091e5;stroke-width:28.3465;stroke-linecap:round;stroke-linejoin:round;stroke-miterlimit:10;stroke-dasharray:none;stroke-opacity:1"
           d="m 2707.5087,419.9812 262.1606,151.36059"
           id="path71" /><path
           style="fill:none;stroke:#2091e5;stroke-width:28.3465;stroke-linecap:round;stroke-linejoin:round;stroke-miterlimit:10;stroke-dasharray:none;stroke-opacity:1"
           d="m 2756.4244,395.77924 209.7374,121.08848"
           id="path73" /><path
           style="fill:none;stroke:#2091e5;stroke-width:28.3465;stroke-linecap:round;stroke-linejoin:round;stroke-miterlimit:10;stroke-dasharray:none;stroke-opacity:1"
           d="M 2969.6693,571.34179 3231.8309,419.9812"
           id="path75" /><path
           style="fill:none;stroke:#2091e5;stroke-width:28.3465;stroke-linecap:round;stroke-linejoin:round;stroke-miterlimit:10;stroke-dasharray:none;stroke-opacity:1"
           d="M 3231.8309,419.9812 V 117.26001"
           id="path77" /><path
           style="fill:none;stroke:#2091e5;stroke-width:28.3465;stroke-linecap:round;stroke-linejoin:round;stroke-miterlimit:10;stroke-dasharray:none;stroke-opacity:1"
           d="M 3186.4227,389.70908 V 147.53213"
           id="path79" /><path
           style="fill:none;stroke:#2091e5;stroke-width:28.3465;stroke-linecap:round;stroke-linejoin:round;stroke-miterlimit:10;stroke-dasharray:none;stroke-opacity:1"
           d="M 3231.8309,117.26001 2969.6693,-34.100582"
           id="path81" /><path
           style="fill:none;stroke:#2091e5;stroke-width:28.3465;stroke-linecap:round;stroke-linejoin:round;stroke-miterlimit:10;stroke-dasharray:none;stroke-opacity:1"
           d="M 2969.6693,-34.100582 2707.5087,117.26001"
           id="path83" /><path
           style="fill:none;stroke:#2091e5;stroke-width:28.3465;stroke-linecap:round;stroke-linejoin:round;stroke-miterlimit:10;stroke-dasharray:none;stroke-opacity:1"
           d="M 2966.1618,20.37349 2756.4244,141.46196"
           id="path85" /></g><g
         style="fill:none;fill-rule:nonzero;stroke:none;stroke-width:0;stroke-linecap:butt;stroke-linejoin:miter;stroke-miterlimit:10;stroke-dasharray:none"
         transform="matrix(3.6048091,0,0,-3.6048091,893.31128,1291.7358)"
         id="g18"><path
           d="M 52.532,82.468 C 52.532,86.628 49.16,90 45,90 40.84,90 37.468,86.628 37.468,82.468"
           style="opacity:1;fill:#b2b2b2;fill-rule:nonzero;stroke:none;stroke-width:1;stroke-linecap:butt;stroke-linejoin:miter;stroke-miterlimit:10;stroke-dasharray:none"
           stroke-linecap="round"
           id="path4" /><path
           d="m 59.69,54.787 v -0.71 c 0,-3.59 1.495,-6.978 4.009,-9.54 4.636,-4.725 7.495,-11.199 7.495,-18.342 C 71.194,11.113 58.448,-0.992 43.14,0.064 30.257,0.953 20.092,10.87 18.918,23.731 c -0.727,7.955 2.107,15.259 7.09,20.503 2.715,2.857 4.302,6.6 4.302,10.542 v 0 c 0,2.361 1.913,4.275 4.274,4.277 l 20.827,0.011 c 2.363,10e-4 4.279,-1.914 4.279,-4.277 z"
           style="opacity:1;fill:#ffb637;fill-rule:nonzero;stroke:none;stroke-width:1;stroke-linecap:butt;stroke-linejoin:miter;stroke-miterlimit:10;stroke-dasharray:none"
           stroke-linecap="round"
           id="path6" /><path
           d="M 56.769,74.663 H 33.231 c -2.146,0 -3.902,-1.756 -3.902,-3.902 v 0 c 0,-2.146 1.756,-3.902 3.902,-3.902 H 56.77 c 2.146,0 3.902,1.756 3.902,3.902 v 0 c 0,2.146 -1.756,3.902 -3.903,3.902 z"
           style="opacity:1;fill:#b2b2b2;fill-rule:nonzero;stroke:none;stroke-width:1;stroke-linecap:butt;stroke-linejoin:miter;stroke-miterlimit:10;stroke-dasharray:none"
           stroke-linecap="round"
           id="path8" /><path
           d="M 53.229,82.468 H 36.771 c -2.146,0 -3.902,-1.756 -3.902,-3.902 v 0 c 0,-2.146 1.756,-3.902 3.902,-3.902 h 16.458 c 2.146,0 3.902,1.756 3.902,3.902 v 0 c 0,2.146 -1.756,3.902 -3.902,3.902 z"
           style="opacity:1;fill:#cccccc;fill-rule:nonzero;stroke:none;stroke-width:1;stroke-linecap:butt;stroke-linejoin:miter;stroke-miterlimit:10;stroke-dasharray:none"
           stroke-linecap="round"
           id="path10" /><path
           d="m 49.819,61.098 c -1.13,0 -2.045,-0.916 -2.045,-2.045 V 46.691 c 0,-5.949 2.449,-11.737 6.719,-15.88 0.81,-0.787 2.104,-0.769 2.892,0.043 0.786,0.81 0.767,2.105 -0.044,2.892 -3.48,3.378 -5.476,8.096 -5.476,12.945 v 12.362 c -0.001,1.129 -0.916,2.045 -2.046,2.045 z"
           style="opacity:1;fill:#ffe0ab;fill-rule:nonzero;stroke:none;stroke-width:1;stroke-linecap:butt;stroke-linejoin:miter;stroke-miterlimit:10;stroke-dasharray:none"
           stroke-linecap="round"
           id="path12" /><path
           d="m 40.18,61.098 c -1.13,0 -2.045,-0.916 -2.045,-2.045 V 46.691 c 0,-4.85 -1.996,-9.568 -5.476,-12.944 -0.811,-0.787 -0.83,-2.082 -0.044,-2.892 0.786,-0.811 2.081,-0.831 2.892,-0.044 4.27,4.143 6.718,9.931 6.718,15.881 v 12.362 c 10e-4,1.128 -0.915,2.044 -2.045,2.044 z"
           style="opacity:1;fill:#ffe0ab;fill-rule:nonzero;stroke:none;stroke-width:1;stroke-linecap:butt;stroke-linejoin:miter;stroke-miterlimit:10;stroke-dasharray:none"
           stroke-linecap="round"
           id="path14" /><path
           d="M 56.769,66.858 H 33.231 c -2.146,0 -3.902,-1.756 -3.902,-3.902 v 0 c 0,-2.146 1.756,-3.902 3.902,-3.902 H 56.77 c 2.146,0 3.902,1.756 3.902,3.902 v 0 c 0,2.146 -1.756,3.902 -3.903,3.902 z"
           style="opacity:1;fill:#cccccc;fill-rule:nonzero;stroke:none;stroke-width:1;stroke-linecap:butt;stroke-linejoin:miter;stroke-miterlimit:10;stroke-dasharray:none"
           stroke-linecap="round"
           id="path16" /></g></g></g></svg>
