<?xml version="1.0" encoding="UTF-8"?>
<svg xmlns="http://www.w3.org/2000/svg" xmlns:xlink="http://www.w3.org/1999/xlink" width="103.923048pt" height="15pt" viewBox="0 0 103.923048 15" version="1.1">
<g id="surface27">
<path style="fill:none;stroke-width:1.5;stroke-linecap:round;stroke-linejoin:round;stroke:rgb(0%,0%,0%);stroke-opacity:1;stroke-miterlimit:10;" d="M 51.960351 -0.000000000000003553 L 25.979882 -15 " transform="matrix(1,0,0,1,51.961524,15)"/>
<path style="fill:none;stroke-width:1.5;stroke-linecap:round;stroke-linejoin:round;stroke:rgb(0%,0%,0%);stroke-opacity:1;stroke-miterlimit:10;" d="M 25.979882 -15 L -0.000586727 -0.000000000000003553 " transform="matrix(1,0,0,1,51.961524,15)"/>
<path style="fill:none;stroke-width:1.5;stroke-linecap:round;stroke-linejoin:round;stroke:rgb(0%,0%,0%);stroke-opacity:1;stroke-miterlimit:10;" d="M 25.632226 -9.601563 L 4.84707 2.398437 " transform="matrix(1,0,0,1,51.961524,15)"/>
<path style="fill:none;stroke-width:1.5;stroke-linecap:round;stroke-linejoin:round;stroke:rgb(0%,0%,0%);stroke-opacity:1;stroke-miterlimit:10;" d="M -0.000586727 -0.000000000000003553 L 0.167382 -0.292969 L -2.852149 -1.058594 L -4.852149 -3.59375 L -8.223243 -3.757813 L -9.875587 -6.894531 L -13.594337 -6.453125 L -14.899024 -10.195313 L -18.96543 -9.152344 L -19.918555 -13.496094 L -24.332618 -11.851563 L -24.941993 -16.796875 L -25.981055 -15 " transform="matrix(1,0,0,1,51.961524,15)"/>
<path style="fill:none;stroke-width:1.5;stroke-linecap:round;stroke-linejoin:round;stroke:rgb(0%,0%,0%);stroke-opacity:1;stroke-miterlimit:10;" d="M -25.981055 -15 L -51.961524 -0.000000000000003553 " transform="matrix(1,0,0,1,51.961524,15)"/>
<path style="fill:none;stroke-width:1.5;stroke-linecap:round;stroke-linejoin:round;stroke:rgb(0%,0%,0%);stroke-opacity:1;stroke-miterlimit:10;" d="M -26.328712 -9.601563 L -49.711524 3.898437 " transform="matrix(1,0,0,1,51.961524,15)"/>
</g>
</svg>
