<?xml version="1.0" encoding="UTF-8"?>
<svg xmlns="http://www.w3.org/2000/svg" xmlns:xlink="http://www.w3.org/1999/xlink" width="79.442286pt" height="61.5pt" viewBox="0 0 79.442286 61.5" version="1.1">
<g id="surface927">
<path style="fill:none;stroke-width:1.5;stroke-linecap:round;stroke-linejoin:round;stroke:rgb(0%,0%,0%);stroke-opacity:1;stroke-miterlimit:10;" d="M -12.990674 -45 L -12.990674 -15 " transform="matrix(1,0,0,1,39.721143,60.75)"/>
<path style="fill:none;stroke-width:1.5;stroke-linecap:round;stroke-linejoin:round;stroke:rgb(0%,0%,0%);stroke-opacity:1;stroke-miterlimit:10;" d="M -12.990674 -15 L -38.971143 0.000000000000007105 " transform="matrix(1,0,0,1,39.721143,60.75)"/>
<path style="fill:none;stroke-width:1.5;stroke-linecap:round;stroke-linejoin:round;stroke:rgb(0%,0%,0%);stroke-opacity:1;stroke-miterlimit:10;" d="M -12.990674 -15 L 12.989794 0.000000000000007105 " transform="matrix(1,0,0,1,39.721143,60.75)"/>
<path style="fill:none;stroke-width:1.5;stroke-linecap:round;stroke-linejoin:round;stroke:rgb(0%,0%,0%);stroke-opacity:1;stroke-miterlimit:10;" d="M 12.989794 0.000000000000007105 L 38.970263 -15 " transform="matrix(1,0,0,1,39.721143,60.75)"/>
<path style="fill:none;stroke-width:1.5;stroke-linecap:round;stroke-linejoin:round;stroke:rgb(0%,0%,0%);stroke-opacity:1;stroke-miterlimit:10;" d="M 38.970263 -15 L 38.970263 -45 " transform="matrix(1,0,0,1,39.721143,60.75)"/>
<path style="fill:none;stroke-width:1.5;stroke-linecap:round;stroke-linejoin:round;stroke:rgb(0%,0%,0%);stroke-opacity:1;stroke-miterlimit:10;" d="M -12.990674 -45 L 12.989794 -60 " transform="matrix(1,0,0,1,39.721143,60.75)"/>
<path style="fill:none;stroke-width:1.5;stroke-linecap:round;stroke-linejoin:round;stroke:rgb(0%,0%,0%);stroke-opacity:1;stroke-miterlimit:10;" d="M 38.970263 -45 L 12.989794 -60 " transform="matrix(1,0,0,1,39.721143,60.75)"/>
</g>
</svg>
