<?xml version="1.0" encoding="UTF-8"?>
<svg xmlns="http://www.w3.org/2000/svg" xmlns:xlink="http://www.w3.org/1999/xlink" width="79.784189pt" height="93.980282pt" viewBox="0 0 79.784189 93.980282" version="1.1">
<defs>
<g>
<symbol overflow="visible" id="glyph0-0">
<path style="stroke:none;" d="M 0.5 1.765625 L 0.5 -7.046875 L 5.5 -7.046875 L 5.5 1.765625 Z M 1.0625 1.21875 L 4.9375 1.21875 L 4.9375 -6.484375 L 1.0625 -6.484375 Z M 1.0625 1.21875 "/>
</symbol>
<symbol overflow="visible" id="glyph0-1">
<path style="stroke:none;" d="M 0.984375 -7.296875 L 2.3125 -7.296875 L 5.546875 -1.1875 L 5.546875 -7.296875 L 6.5 -7.296875 L 6.5 0 L 5.171875 0 L 1.9375 -6.09375 L 1.9375 0 L 0.984375 0 Z M 0.984375 -7.296875 "/>
</symbol>
<symbol overflow="visible" id="glyph0-2">
<path style="stroke:none;" d="M 0.984375 -7.296875 L 1.96875 -7.296875 L 1.96875 -4.296875 L 5.546875 -4.296875 L 5.546875 -7.296875 L 6.53125 -7.296875 L 6.53125 0 L 5.546875 0 L 5.546875 -3.46875 L 1.96875 -3.46875 L 1.96875 0 L 0.984375 0 Z M 0.984375 -7.296875 "/>
</symbol>
</g>
</defs>
<g id="surface347">
<g style="fill:rgb(56.078431%,56.078431%,100%);fill-opacity:1;">
  <use xlink:href="#glyph0-1" x="71.265625" y="69.46875"/>
</g>
<g style="fill:rgb(56.078431%,56.078431%,100%);fill-opacity:1;">
  <use xlink:href="#glyph0-2" x="71.246094" y="60.179688"/>
</g>
<path style="fill:none;stroke-width:1.5;stroke-linecap:round;stroke-linejoin:round;stroke:rgb(0%,0%,0%);stroke-opacity:1;stroke-miterlimit:10;" d="M -4.909184 -3.136532 L 24.926753 0.00018683 " transform="matrix(1,0,0,1,37.877934,93.230282)"/>
<path style="fill:none;stroke-width:1.5;stroke-linecap:round;stroke-linejoin:round;stroke:rgb(0%,0%,0%);stroke-opacity:1;stroke-miterlimit:10;" d="M -1.456059 -7.296688 L 22.411128 -4.788876 " transform="matrix(1,0,0,1,37.877934,93.230282)"/>
<path style="fill:none;stroke-width:1.5;stroke-linecap:round;stroke-linejoin:round;stroke:rgb(0%,0%,0%);stroke-opacity:1;stroke-miterlimit:10;" d="M 24.926753 0.00018683 L 34.614253 -21.761532 " transform="matrix(1,0,0,1,37.877934,93.230282)"/>
<path style="fill:none;stroke-width:1.5;stroke-linecap:round;stroke-linejoin:round;stroke:rgb(0%,0%,0%);stroke-opacity:1;stroke-miterlimit:10;" d="M 32.348628 -31.706844 L 14.833003 -47.480282 " transform="matrix(1,0,0,1,37.877934,93.230282)"/>
<path style="fill:none;stroke-width:1.5;stroke-linecap:round;stroke-linejoin:round;stroke:rgb(0%,0%,0%);stroke-opacity:1;stroke-miterlimit:10;" d="M -4.909184 -3.136532 L -11.147466 -32.480282 " transform="matrix(1,0,0,1,37.877934,93.230282)"/>
<path style="fill:none;stroke-width:1.5;stroke-linecap:round;stroke-linejoin:round;stroke:rgb(0%,0%,0%);stroke-opacity:1;stroke-miterlimit:10;" d="M 14.833003 -47.480282 L -11.147466 -32.480282 " transform="matrix(1,0,0,1,37.877934,93.230282)"/>
<path style="fill:none;stroke-width:1.5;stroke-linecap:round;stroke-linejoin:round;stroke:rgb(0%,0%,0%);stroke-opacity:1;stroke-miterlimit:10;" d="M -11.147466 -32.480282 L -37.127934 -47.480282 " transform="matrix(1,0,0,1,37.877934,93.230282)"/>
<path style="fill:none;stroke-width:1.5;stroke-linecap:round;stroke-linejoin:round;stroke:rgb(0%,0%,0%);stroke-opacity:1;stroke-miterlimit:10;" d="M -11.495122 -37.878719 L -32.280278 -49.878719 " transform="matrix(1,0,0,1,37.877934,93.230282)"/>
<path style="fill:none;stroke-width:1.5;stroke-linecap:round;stroke-linejoin:round;stroke:rgb(0%,0%,0%);stroke-opacity:1;stroke-miterlimit:10;" d="M -37.127934 -47.480282 L -37.127934 -77.480282 " transform="matrix(1,0,0,1,37.877934,93.230282)"/>
<path style="fill:none;stroke-width:1.5;stroke-linecap:round;stroke-linejoin:round;stroke:rgb(0%,0%,0%);stroke-opacity:1;stroke-miterlimit:10;" d="M -37.127934 -77.480282 L -11.147466 -92.480282 " transform="matrix(1,0,0,1,37.877934,93.230282)"/>
<path style="fill:none;stroke-width:1.5;stroke-linecap:round;stroke-linejoin:round;stroke:rgb(0%,0%,0%);stroke-opacity:1;stroke-miterlimit:10;" d="M -32.280278 -75.081844 L -11.495122 -87.081844 " transform="matrix(1,0,0,1,37.877934,93.230282)"/>
<path style="fill:none;stroke-width:1.5;stroke-linecap:round;stroke-linejoin:round;stroke:rgb(0%,0%,0%);stroke-opacity:1;stroke-miterlimit:10;" d="M 14.833003 -47.480282 L 14.833003 -77.480282 " transform="matrix(1,0,0,1,37.877934,93.230282)"/>
<path style="fill:none;stroke-width:1.5;stroke-linecap:round;stroke-linejoin:round;stroke:rgb(0%,0%,0%);stroke-opacity:1;stroke-miterlimit:10;" d="M 10.333003 -50.480282 L 10.333003 -74.480282 " transform="matrix(1,0,0,1,37.877934,93.230282)"/>
<path style="fill:none;stroke-width:1.5;stroke-linecap:round;stroke-linejoin:round;stroke:rgb(0%,0%,0%);stroke-opacity:1;stroke-miterlimit:10;" d="M -11.147466 -92.480282 L 14.833003 -77.480282 " transform="matrix(1,0,0,1,37.877934,93.230282)"/>
</g>
</svg>
