<?xml version="1.0" encoding="UTF-8"?>
<svg xmlns="http://www.w3.org/2000/svg" xmlns:xlink="http://www.w3.org/1999/xlink" width="51.961524pt" height="60pt" viewBox="0 0 51.961524 60" version="1.1">
<g id="surface17">
<path style="fill:none;stroke-width:1.5;stroke-linecap:round;stroke-linejoin:round;stroke:rgb(0%,0%,0%);stroke-opacity:1;stroke-miterlimit:10;" d="M -25.980762 -45 L -25.980762 -15 " transform="matrix(1,0,0,1,25.980762,60)"/>
<path style="fill:none;stroke-width:1.5;stroke-linecap:round;stroke-linejoin:round;stroke:rgb(0%,0%,0%);stroke-opacity:1;stroke-miterlimit:10;" d="M -21.480762 -42 L -21.480762 -18 " transform="matrix(1,0,0,1,25.980762,60)"/>
<path style="fill:none;stroke-width:1.5;stroke-linecap:round;stroke-linejoin:round;stroke:rgb(0%,0%,0%);stroke-opacity:1;stroke-miterlimit:10;" d="M -25.980762 -15 L -0.000293364 0.000000000000007105 " transform="matrix(1,0,0,1,25.980762,60)"/>
<path style="fill:none;stroke-width:1.5;stroke-linecap:round;stroke-linejoin:round;stroke:rgb(0%,0%,0%);stroke-opacity:1;stroke-miterlimit:10;" d="M -0.000293364 0.000000000000007105 L 25.980175 -15 " transform="matrix(1,0,0,1,25.980762,60)"/>
<path style="fill:none;stroke-width:1.5;stroke-linecap:round;stroke-linejoin:round;stroke:rgb(0%,0%,0%);stroke-opacity:1;stroke-miterlimit:10;" d="M 0.347363 -5.398437 L 21.132519 -17.398437 " transform="matrix(1,0,0,1,25.980762,60)"/>
<path style="fill:none;stroke-width:1.5;stroke-linecap:round;stroke-linejoin:round;stroke:rgb(0%,0%,0%);stroke-opacity:1;stroke-miterlimit:10;" d="M 25.980175 -15 L 25.980175 -45 " transform="matrix(1,0,0,1,25.980762,60)"/>
<path style="fill:none;stroke-width:1.5;stroke-linecap:round;stroke-linejoin:round;stroke:rgb(0%,0%,0%);stroke-opacity:1;stroke-miterlimit:10;" d="M -25.980762 -45 L -0.000293364 -60 " transform="matrix(1,0,0,1,25.980762,60)"/>
<path style="fill:none;stroke-width:1.5;stroke-linecap:round;stroke-linejoin:round;stroke:rgb(0%,0%,0%);stroke-opacity:1;stroke-miterlimit:10;" d="M 25.980175 -45 L -0.000293364 -60 " transform="matrix(1,0,0,1,25.980762,60)"/>
<path style="fill:none;stroke-width:1.5;stroke-linecap:round;stroke-linejoin:round;stroke:rgb(0%,0%,0%);stroke-opacity:1;stroke-miterlimit:10;" d="M 21.132519 -42.601562 L 0.347363 -54.601562 " transform="matrix(1,0,0,1,25.980762,60)"/>
</g>
</svg>
