<?xml version="1.0" encoding="UTF-8"?>
<svg xmlns="http://www.w3.org/2000/svg" xmlns:xlink="http://www.w3.org/1999/xlink" width="53.461524pt" height="61.5pt" viewBox="0 0 53.461524 61.5" version="1.1">
<g id="surface937">
<path style="fill:none;stroke-width:1.5;stroke-linecap:round;stroke-linejoin:round;stroke:rgb(0%,0%,0%);stroke-opacity:1;stroke-miterlimit:10;" d="M -25.980762 -15 L -25.980762 -45 " transform="matrix(1,0,0,1,26.730762,60.75)"/>
<path style="fill:none;stroke-width:1.5;stroke-linecap:round;stroke-linejoin:round;stroke:rgb(0%,0%,0%);stroke-opacity:1;stroke-miterlimit:10;" d="M -0.000293364 -60 L -25.980762 -45 " transform="matrix(1,0,0,1,26.730762,60.75)"/>
<path style="fill:none;stroke-width:1.5;stroke-linecap:round;stroke-linejoin:round;stroke:rgb(0%,0%,0%);stroke-opacity:1;stroke-miterlimit:10;" d="M 25.980175 -45 L -0.000293364 -60 " transform="matrix(1,0,0,1,26.730762,60.75)"/>
<path style="fill:none;stroke-width:1.5;stroke-linecap:round;stroke-linejoin:round;stroke:rgb(0%,0%,0%);stroke-opacity:1;stroke-miterlimit:10;" d="M 25.980175 -15 L 25.980175 -45 " transform="matrix(1,0,0,1,26.730762,60.75)"/>
<path style="fill:none;stroke-width:1.5;stroke-linecap:round;stroke-linejoin:round;stroke:rgb(0%,0%,0%);stroke-opacity:1;stroke-miterlimit:10;" d="M -0.000293364 0.000000000000007105 L 25.980175 -15 " transform="matrix(1,0,0,1,26.730762,60.75)"/>
<path style="fill:none;stroke-width:1.5;stroke-linecap:round;stroke-linejoin:round;stroke:rgb(0%,0%,0%);stroke-opacity:1;stroke-miterlimit:10;" d="M -25.980762 -15 L -0.000293364 0.000000000000007105 " transform="matrix(1,0,0,1,26.730762,60.75)"/>
</g>
</svg>
