<?xml version="1.0" encoding="UTF-8"?>
<svg xmlns="http://www.w3.org/2000/svg" xmlns:xlink="http://www.w3.org/1999/xlink" width="141.423048pt" height="66.39502pt" viewBox="0 0 141.423048 66.39502" version="1.1">
<defs>
<g>
<symbol overflow="visible" id="glyph0-0">
<path style="stroke:none;" d="M 0.5 1.765625 L 0.5 -7.046875 L 5.5 -7.046875 L 5.5 1.765625 Z M 1.0625 1.21875 L 4.9375 1.21875 L 4.9375 -6.484375 L 1.0625 -6.484375 Z M 1.0625 1.21875 "/>
</symbol>
<symbol overflow="visible" id="glyph0-1">
<path style="stroke:none;" d="M 0.984375 -7.296875 L 2.3125 -7.296875 L 5.546875 -1.1875 L 5.546875 -7.296875 L 6.5 -7.296875 L 6.5 0 L 5.171875 0 L 1.9375 -6.09375 L 1.9375 0 L 0.984375 0 Z M 0.984375 -7.296875 "/>
</symbol>
<symbol overflow="visible" id="glyph0-2">
<path style="stroke:none;" d="M 0.984375 -7.296875 L 1.96875 -7.296875 L 1.96875 -4.296875 L 5.546875 -4.296875 L 5.546875 -7.296875 L 6.53125 -7.296875 L 6.53125 0 L 5.546875 0 L 5.546875 -3.46875 L 1.96875 -3.46875 L 1.96875 0 L 0.984375 0 Z M 0.984375 -7.296875 "/>
</symbol>
</g>
</defs>
<g id="surface237">
<g style="fill:rgb(56.078431%,56.078431%,100%);fill-opacity:1;">
  <use xlink:href="#glyph0-1" x="22.992188" y="9.289062"/>
</g>
<g style="fill:rgb(56.078431%,56.078431%,100%);fill-opacity:1;">
  <use xlink:href="#glyph0-1" x="84.972656" y="31.789062"/>
</g>
<g style="fill:rgb(56.078431%,56.078431%,100%);fill-opacity:1;">
  <use xlink:href="#glyph0-2" x="77.414062" y="31.789062"/>
</g>
<path style="fill:none;stroke-width:1.5;stroke-linecap:round;stroke-linejoin:round;stroke:rgb(0%,0%,0%);stroke-opacity:1;stroke-miterlimit:10;" d="M -18.000587 -45.000488 L -18.000587 -15.000488 " transform="matrix(1,0,0,1,70.711524,65.64502)"/>
<path style="fill:none;stroke-width:1.5;stroke-linecap:round;stroke-linejoin:round;stroke:rgb(0%,0%,0%);stroke-opacity:1;stroke-miterlimit:10;" d="M -22.500587 -42.000488 L -22.500587 -18.000488 " transform="matrix(1,0,0,1,70.711524,65.64502)"/>
<path style="fill:none;stroke-width:1.5;stroke-linecap:round;stroke-linejoin:round;stroke:rgb(0%,0%,0%);stroke-opacity:1;stroke-miterlimit:10;" d="M -18.000587 -15.000488 L -43.981055 -0.000488281 " transform="matrix(1,0,0,1,70.711524,65.64502)"/>
<path style="fill:none;stroke-width:1.5;stroke-linecap:round;stroke-linejoin:round;stroke:rgb(0%,0%,0%);stroke-opacity:1;stroke-miterlimit:10;" d="M -43.981055 -0.000488281 L -69.961524 -15.000488 " transform="matrix(1,0,0,1,70.711524,65.64502)"/>
<path style="fill:none;stroke-width:1.5;stroke-linecap:round;stroke-linejoin:round;stroke:rgb(0%,0%,0%);stroke-opacity:1;stroke-miterlimit:10;" d="M -44.328712 -5.398926 L -65.113868 -17.398926 " transform="matrix(1,0,0,1,70.711524,65.64502)"/>
<path style="fill:none;stroke-width:1.5;stroke-linecap:round;stroke-linejoin:round;stroke:rgb(0%,0%,0%);stroke-opacity:1;stroke-miterlimit:10;" d="M -69.961524 -15.000488 L -69.961524 -45.000488 " transform="matrix(1,0,0,1,70.711524,65.64502)"/>
<path style="fill:none;stroke-width:1.5;stroke-linecap:round;stroke-linejoin:round;stroke:rgb(0%,0%,0%);stroke-opacity:1;stroke-miterlimit:10;" d="M -69.961524 -45.000488 L -48.738868 -57.254395 " transform="matrix(1,0,0,1,70.711524,65.64502)"/>
<path style="fill:none;stroke-width:1.5;stroke-linecap:round;stroke-linejoin:round;stroke:rgb(0%,0%,0%);stroke-opacity:1;stroke-miterlimit:10;" d="M -65.113868 -42.602051 L -46.488868 -53.355957 " transform="matrix(1,0,0,1,70.711524,65.64502)"/>
<path style="fill:none;stroke-width:1.5;stroke-linecap:round;stroke-linejoin:round;stroke:rgb(0%,0%,0%);stroke-opacity:1;stroke-miterlimit:10;" d="M -39.223243 -57.254395 L -18.000587 -45.000488 " transform="matrix(1,0,0,1,70.711524,65.64502)"/>
<path style="fill:none;stroke-width:1.5;stroke-linecap:round;stroke-linejoin:round;stroke:rgb(0%,0%,0%);stroke-opacity:1;stroke-miterlimit:10;" d="M 69.960351 -37.500488 L 43.979882 -22.500488 " transform="matrix(1,0,0,1,70.711524,65.64502)"/>
<path style="fill:none;stroke-width:1.5;stroke-linecap:round;stroke-linejoin:round;stroke:rgb(0%,0%,0%);stroke-opacity:1;stroke-miterlimit:10;" d="M 43.979882 -22.500488 L 22.757226 -34.754395 " transform="matrix(1,0,0,1,70.711524,65.64502)"/>
<path style="fill:none;stroke-width:1.5;stroke-linecap:round;stroke-linejoin:round;stroke:rgb(0%,0%,0%);stroke-opacity:1;stroke-miterlimit:10;" d="M 43.632226 -27.898926 L 25.007226 -38.648926 " transform="matrix(1,0,0,1,70.711524,65.64502)"/>
</g>
</svg>
